<svg width="25" height="25" viewBox="0 0 25 25" fill="none" xmlns="http://www.w3.org/2000/svg">
<path fill-rule="evenodd" clip-rule="evenodd" d="M24.3234 9.02176C24.2921 8.98481 24.2599 8.94872 24.227 8.91352C23.8398 8.5 23.3689 8.22464 22.8141 8.08745C22.2622 7.9455 21.6569 7.95818 20.9981 8.1255C20.3355 8.29377 19.7961 8.57385 19.3797 8.96574C18.9662 9.35288 18.6904 9.82999 18.5523 10.3971C18.4142 10.9641 18.4336 11.596 18.6106 12.2926L18.612 12.2983C18.7889 12.9949 19.0734 13.5595 19.4653 13.9919C19.861 14.4234 20.3391 14.711 20.8996 14.8549C21.4638 14.9977 22.0886 14.9821 22.7739 14.8081C23.3266 14.6677 23.7745 14.4794 24.1176 14.2431C24.4644 14.0059 24.7301 13.751 24.9148 13.4784C24.9437 13.4349 24.9712 13.3916 24.9971 13.3485C24.8456 18.571 21.2686 23.2751 15.9532 24.625C9.52972 26.2564 2.99993 22.3717 1.36854 15.9482C-0.262863 9.52471 3.6219 2.99493 10.0454 1.36354C16.1218 -0.179706 22.2933 3.21316 24.3234 9.02176ZM24.8722 11.2464L21.0179 12.2253C21.0859 12.4787 21.1832 12.6878 21.3099 12.8524C21.4451 13.0196 21.6051 13.1341 21.7901 13.1959C21.9779 13.253 22.1854 13.2527 22.4126 13.195C22.6208 13.1421 22.7849 13.0662 22.9048 12.9672C23.0238 12.8645 23.1116 12.7656 23.1681 12.6706C23.2236 12.5719 23.2584 12.5026 23.2725 12.4628L23.2795 12.4429L24.9608 12.011C24.9396 11.7567 24.9101 11.5017 24.8722 11.2464ZM18.7354 15.6645L12.9882 17.1241L10.9069 8.92919L13.3148 8.31763L14.9115 14.6044L18.2508 13.7563L18.7354 15.6645ZM20.72 10.5296C20.6993 10.6533 20.6965 10.787 20.7115 10.9308L22.7125 10.4226C22.6562 10.2893 22.5883 10.1735 22.5089 10.0753C22.3766 9.90337 22.2222 9.78742 22.0458 9.72744C21.8684 9.66368 21.6755 9.65824 21.4673 9.71113C21.2629 9.76305 21.096 9.85984 20.9667 10.0015C20.8403 10.1384 20.758 10.3144 20.72 10.5296Z" fill="#CB1B45"/>
</svg>
